<?xml version="1.0" encoding="UTF-8" standalone="no"?>
<svg xmlns="http://www.w3.org/2000/svg" xmlns:xlink="http://www.w3.org/1999/xlink" style="isolation:isolate" viewBox="0 0 400 400" width="400px" height="400px">
    <g style="isolation:isolate">
        <path d=" M 28.77 204.942 C 28.77 246.943 35.89 264.247 62.485 290.842 C 89.081 317.438 132.071 318 187 318 C 177.255 301.99 167.55 293.998 153 284.864 C 153 310.999 153 286.151 153 304 C 54.25 304 40.041 226.685 39.85 204.942 C 31.817 204.942 40.874 204.942 28.77 204.942 Z " fill="rgb(0,150,136)" stroke-width="3" stroke="rgb(255,255,255)" stroke-linejoin="miter" stroke-linecap="square" stroke-miterlimit="3"></path>
        <path d=" M 373 200 C 373 157.999 365.88 140.695 339.284 114.1 C 312.689 87.504 269.698 86.942 214.77 86.942 C 224.515 102.952 234.22 110.944 248.77 120.078 C 248.77 93.943 248.77 118.791 248.77 100.942 C 347.52 100.942 361.729 178.257 361.919 200 C 369.953 200 360.895 200 373 200 Z " fill="rgb(0,150,136)" stroke-width="3" stroke="rgb(255,255,255)" stroke-linejoin="miter" stroke-linecap="square" stroke-miterlimit="3"></path>
    </g>
    <path d=" M 97.531 206.592 L 97.531 144.629 L 111.74 144.629 L 111.74 206.665 L 111.74 206.665 Q 111.74 222.852 108.078 232.373 L 108.078 232.373 L 108.078 232.373 Q 104.416 241.895 94.858 247.864 L 94.858 247.864 L 94.858 247.864 Q 85.3 253.833 69.772 253.833 L 69.772 253.833 L 69.772 253.833 Q 54.685 253.833 45.09 248.633 L 45.09 248.633 L 45.09 248.633 Q 35.495 243.433 31.394 233.582 L 31.394 233.582 L 31.394 233.582 Q 27.292 223.73 27.292 206.665 L 27.292 206.665 L 27.292 144.629 L 41.501 144.629 L 41.501 206.592 L 41.501 206.592 Q 41.501 220.581 44.101 227.209 L 44.101 227.209 L 44.101 227.209 Q 46.701 233.838 53.037 237.427 L 53.037 237.427 L 53.037 237.427 Q 59.372 241.016 68.527 241.016 L 68.527 241.016 L 68.527 241.016 Q 84.201 241.016 90.866 233.911 L 90.866 233.911 L 90.866 233.911 Q 97.531 226.807 97.531 206.592 L 97.531 206.592 L 97.531 206.592 Z  M 205.856 206.592 L 205.856 144.629 L 220.065 144.629 L 220.065 206.665 L 220.065 206.665 Q 220.065 222.852 216.403 232.373 L 216.403 232.373 L 216.403 232.373 Q 212.741 241.895 203.183 247.864 L 203.183 247.864 L 203.183 247.864 Q 193.625 253.833 178.098 253.833 L 178.098 253.833 L 178.098 253.833 Q 163.01 253.833 153.415 248.633 L 153.415 248.633 L 153.415 248.633 Q 143.82 243.433 139.719 233.582 L 139.719 233.582 L 139.719 233.582 Q 135.617 223.73 135.617 206.665 L 135.617 206.665 L 135.617 144.629 L 149.826 144.629 L 149.826 206.592 L 149.826 206.592 Q 149.826 220.581 152.426 227.209 L 152.426 227.209 L 152.426 227.209 Q 155.026 233.838 161.362 237.427 L 161.362 237.427 L 161.362 237.427 Q 167.697 241.016 176.853 241.016 L 176.853 241.016 L 176.853 241.016 Q 192.526 241.016 199.191 233.911 L 199.191 233.911 L 199.191 233.911 Q 205.856 226.807 205.856 206.592 L 205.856 206.592 L 205.856 206.592 Z  M 260.349 252.002 L 246.14 252.002 L 246.14 144.629 L 260.349 144.629 L 260.349 252.002 L 260.349 252.002 Z  M 324.143 252.002 L 285.397 252.002 L 285.397 144.629 L 322.385 144.629 L 322.385 144.629 Q 334.909 144.629 341.501 146.167 L 341.501 146.167 L 341.501 146.167 Q 350.729 148.291 357.248 153.857 L 357.248 153.857 L 357.248 153.857 Q 365.744 161.035 369.956 172.205 L 369.956 172.205 L 369.956 172.205 Q 374.167 183.374 374.167 197.729 L 374.167 197.729 L 374.167 197.729 Q 374.167 209.961 371.311 219.409 L 371.311 219.409 L 371.311 219.409 Q 368.454 228.857 363.986 235.046 L 363.986 235.046 L 363.986 235.046 Q 359.519 241.235 354.208 244.788 L 354.208 244.788 L 354.208 244.788 Q 348.898 248.34 341.391 250.171 L 341.391 250.171 L 341.391 250.171 Q 333.884 252.002 324.143 252.002 L 324.143 252.002 L 324.143 252.002 Z  M 299.606 157.3 L 299.606 239.331 L 322.531 239.331 L 322.531 239.331 Q 333.151 239.331 339.194 237.354 L 339.194 237.354 L 339.194 237.354 Q 345.236 235.376 348.825 231.787 L 348.825 231.787 L 348.825 231.787 Q 353.879 226.733 356.699 218.201 L 356.699 218.201 L 356.699 218.201 Q 359.519 209.668 359.519 197.51 L 359.519 197.51 L 359.519 197.51 Q 359.519 180.664 353.989 171.619 L 353.989 171.619 L 353.989 171.619 Q 348.459 162.573 340.549 159.497 L 340.549 159.497 L 340.549 159.497 Q 334.836 157.3 322.165 157.3 L 322.165 157.3 L 299.606 157.3 L 299.606 157.3 Z " fill="rgb(74,134,232)" stroke-width="3" stroke="rgb(255,255,255)" stroke-linejoin="miter" stroke-linecap="square" stroke-miterlimit="3"></path>
</svg>
